<svg xmlns="http://www.w3.org/2000/svg" version="1.1" xmlns:xlink="http://www.w3.org/1999/xlink" xmlns:svgjs="http://svgjs.dev/svgjs" viewBox="0 0 1422 800"><defs><linearGradient x1="50%" y1="0%" x2="50%" y2="100%" id="ssscribble-grad"><stop stop-color="hsl(37, 99%, 67%)" stop-opacity="1" offset="0%"></stop><stop stop-color="hsl(316, 73%, 52%)" stop-opacity="1" offset="100%"></stop></linearGradient></defs><g fill="none" stroke-width="2" stroke="url(#ssscribble-grad)" stroke-linecap="round"><path d="M1396.05 576.98C1347.17 594.58 1250.45 611.98 1142.97 628.84 1062.88 645.31 1037.67 660.47 1072.75 673.52 1154.89 685.12 1252.31 693.31 1331.33 697.09 1368.16 698.25 1349.68 693.89 1283.14 683.5 1031.4 632.92 1214.51 554.95 1230.1 648.16 1098.34 772.22 944.65 907.15 837.22 995.66 795.49 995.35 812.04 904.77 849.26 777.2 873.61 731.01 894.14 708.11 909.04 715.43 922.49 754.24 929.25 819 929.69 899.11 925.18 1011.93 892.38 1061.16 867.44 973.45 849.84 890.72 829.72 812.21 806.83 754.48 783.36 728.99 756.06 739.45 724.12 781.56 690.48 847.04 651.11 920.07 605.72 985.64 558.88 1033.13 507.09 1051.96 452.23 1039.71 353.99 935.59 279.46 784.95 266.92 668.76 320.1 631.8 423.24 674 508.85 752.69 492.79 834.37 359.69 873.31 179.11 861.74 93.1 807.69 173.21 726.19 343.29 639.28 396.93 593.52 403.96 550.51 357.19 511.11 268.23 472.45 162.41 437.81 73.47 407.15 31.6 377.3 51.63 350.91 128.23 327.71 232.23 304.78 327.17 284.53 376.05 266.93 357.98 249.32 281.94 234.78 178.4 223.42 84.03 212.33 34.92 204.93 47.03 201.58 115.21 199.03 216.32 201.06 317.26 207.78 388.65 215.23 410.48 226.98 381.1 242.23 222.83 268.13 104.02 291.66 143.06 291.44 307.95 248.77 467.17 159.29 524.98 31.47 470.78 -93.36 369.97 -177.32 296.7 -177.04 276.83 -97.52 323.79 21.53 406.13 99.87 456.51 99.23 506.56 68.94 553.66 11.53 600.94 -63.97 643.15 -145.4 679.87 -217.68 715.53 -266.6 746.07 -282.25 771.9 -260.26 797.29 -206.03 818.73 -129.32 836.34 -46.59 860.62 42.03 886.28 3.29 885.45 -100.12 881.94 -173.45 872.34 -229.81 857 -258.69 841.84 -256.09 823.06 -221.74 803.18 -162.65 781.85 -9.27 792.86 112.88 866.97 149.86 994.5 98.02 1145.86 4.83 1246.22 -73.07 1234.59 -108.66 1117.12 -81.09 988.88 -8.37 986.47 93.98 1136.84 197.78 1320.93 286.46 1363.23 327.37 1352.88 362.99 1291.44 393.77 1200.44 421.93 1107.73 446.35 1046.32 467.94 1040.99 488.1 1095.25 506.72 1193.09 524.54 1300.11 541.98 1377.95 559.37 1396.06 576.97Q1396.05 576.98 1396.05 576.98" opacity="0.45"></path><path d="M1362.05 509.24C1137.95 551.66 1239.7 560.44 1306.39 525.27 1150.18 503.64 984.72 485.57 933.3 489.26 1013.54 530.1 1138.78 612.1 1210.8 729.74 1190.93 849.63 1087.78 941.31 958.05 964.08 835.23 910.55 757.04 801.94 720.24 698.95 715.51 674.66 723.6 752.14 725.88 898.41 732.29 1023.46 720.87 1044.23 688.01 939.45 655.15 787.82 602.41 698.59 534.02 725.98 469.77 846.18 401.9 968.64 349.68 1015.14 329.54 962.13 353.6 836.75 425.78 703.23 504.86 610.92 560.84 588.71 537.64 623.28 422.55 695.16 258.34 762.65 143.89 802.13 161.09 813.06 297.08 788.31 429.2 741.31 412.67 677.92 245.49 611.91 84 553.2 99.99 492.82 278.56 444.91 410.05 412.05 232.61 371.05 286.78 361.18 446.36 370.74 348.19 360.8 199.54 331.44 139.7 269.88 214.71 179.75 371.86 65.09 510.44 -49.85 572.44 -127.5 546.52 -144.27 478.14 -86.18 397.71 13.1 353.46 109.02 351.98 137.96 382.15 67.39 435.2 -73.75 491.49 -206.64 554.08 -246.74 604.77 -164.21 637.63 -12.59 670.49 92.22 683.98 78.14 683.36 -34.21 689.05 -167.81 695.77 -226.6 722.54 -178.24 780.95 -51.17 879.31 86.91 1010.38 174.66 1129.42 186.12 1202.54 133.4 1183.63 56.58 1088.13 -17.98 969.93 -52.81 929.11 -43 1023.15 3.94 1201.26 76.13 1323.55 154.7 1280.92 239.58 1113.97 313.84 1001.96 373.6 1083.67 431.32 1278.82 476.37 1362.06 509.23Q1362.05 509.24 1362.05 509.24" opacity="0.85"></path><path d="M1328.05 355.56C1121.22 393.89 1155.61 408.98 1295.25 407.55 1209.46 421.99 1044.38 454.19 918.16 514.42 897.87 598.75 974.74 705.04 1078.37 814.1 1155.2 894.21 1157.67 924.98 1096.65 888.76 992.22 804.8 881.78 703.24 789.54 638.38 712.01 656.15 660 756.55 623.86 896.61 595.48 1000.11 569.02 1006.4 538.51 905.45 507.99 763.73 474.88 670.21 445.71 675.21 424.3 770.93 420.81 891.75 445.45 968.21 484.81 965.91 545 883.25 602.4 761.33 616.39 641.43 570.12 564.19 453.3 540.05 309.67 565.08 196.62 615.79 185.14 667.31 348.44 726.88 310.03 707.14 104.1 655.88 153.86 615.62 326.77 578.2 444.05 547.69 373.21 517.17 197.59 495 102.02 477.72 176.46 456.22 351.44 431.14 473.47 393.92 455.06 341.64 331.51 267.97 214.66 173.09 184.12 74.54 264.94 -19.98 401.62 -85.01 536.76 -100.88 614.07 -59.83 628.58 28.29 591.48 118.44 537.22 173.75 493.55 153.69 457.04 54.89 447.24 -83.29 458.31 -190.8 476.58 -207.61 503.92 -120.3 534.43 21.4 564.94 122.39 597.19 122.31 636.46 30.6 682.93 -97.68 748.23 -180.73 837.62 -176.15 934.16 -88.93 1038.67 39.99 1122.82 155.73 1155.36 223.73 1121.87 229.14 1026.74 189.02 930.04 119.96 885.38 57.47 947.67 20.17 1096.27 6.97 1247.21 25.02 1288.02 63.45 1188.38 116.81 1030.76 174.23 968.06 226.6 1075.36 281.1 1257.17 325.04 1328.06 355.55Q1328.05 355.56 1328.05 355.56" opacity="0.82"></path><path d="M1294.05 236.84C1190.57 265 1021.25 287.7 933.99 307.9 994.16 331.85 1138.7 360.57 1245.31 400.87 1239.02 453.4 1121.95 524.36 973.67 612.97 868.63 703.93 852.81 792.23 907.96 857.06 1001.47 880.8 1076.47 854.91 1106.27 781.89 1091.26 694.31 1036.2 620.14 964.17 599.19 879.46 652.39 803.4 765.16 743.16 892.62 684.79 974.22 641.75 967.92 613.58 871.45 588.83 722.92 674.1 924.76 650.04 820.75 576.82 705.59 461.39 600.02 330.96 527.11 238.89 493.54 221.31 496.82 297.03 521.33 415.98 562.39 507.79 599.13 493.44 622.66 285.89 642.35 292.76 606.57 478.05 567.14 418.82 538.98 258.84 506.49 145.22 467.8 170.15 425.88 314 372.43 463.38 305.03 521.27 232.7 462.38 149.57 347.18 65.1 246.55 -2.81 227.48 -46.53 290.62 -49.88 409.02 -13.89 532.52 58.27 625.67 144.1 680.54 202.36 694.48 209.96 686.25 149.06 649.08 -26.86 627.96 -120.95 661.1 55.4 689.27 151.9 734.31 163.94 795.04 93.22 855.7 -23.35 928.8 -120.11 1003.86 -152.68 1060.91 -111.09 1093.37 -11.67 1081.92 105.24 990.67 237.23 867.62 228.21 1023.79 156.73 1210.41 99.24 1022.64 103.01 944.63 143.43 1069.09 176.36 1234.78 208.66 1294.06 236.83Q1294.05 236.84 1294.05 236.84" opacity="0.50"></path><path d="M1260.05 246.46C1169.88 272.28 1013.43 304.09 908.36 343.02 923.24 384.34 1036.22 436.58 1160.64 500.82 1221.49 567.97 1178.33 643.71 1062.75 719.89 927.01 781.61 831.9 823.31 800.96 831.33 831.82 805.05 896 744.35 960.26 663.76 1015.44 596.25 1038.45 561.44 1032.49 582.36 1006.63 660.81 966.89 775.53 925.33 885.46 879.39 945.68 841.3 928.79 815.48 837.45 783.5 668.85 763.83 677.76 741.34 817.8 702.55 886.97 637.02 900.46 542.05 858.89 437.99 775.33 336.75 674.22 272.05 579.95 269.15 503.04 333.64 455.6 442.49 434.39 531.19 436 551.2 449.46 471.42 464.2 264.24 489.91 346.27 487.53 512.05 455.11 463.62 429.29 321.39 392.06 198.32 344.28 179.05 296.14 278.24 237.83 425.14 173.05 536.48 113.56 555.11 57.58 491.01 16.18 383.27 -2.4 298.03 7.96 270.99 51.03 306.13 111.45 389.75 181.96 489.84 238.63 592.65 253.32 673.11 216.69 727.92 128.6 764.36 14.55 784.98 -89.97 800.58 -142.51 810.97 -121.52 826.9 -31.59 852.72 89.4 878.54 180.77 913.02 202.91 951.32 152.68 984.42 52.71 1010.77 -47.3 1019.09 -106.84 1009.03 -108.85 971.1 -50.9 908.08 43.49 847.78 150.97 801.22 242.28 799.9 302.4 860.76 328.23 976.61 323.6 1111.23 301.68 1202.24 265.29 1206.79 232.06 1114.39 209.66 986.42 190.16 901.9 184.9 931.1 192.27 1064.11 202.03 1211.58 220.63 1260.06 246.45Q1260.05 246.46 1260.05 246.46" opacity="0.64"></path><path d="M1226.05 376.86C1148.59 400.33 1007.5 434.57 892.81 478.36 867.82 521.99 938.29 574.11 1052.93 630.97 1153.1 682.52 1182.14 730.39 1133.36 765.54 1027.98 781.73 909.2 773.67 814.9 737.58 760.77 684.94 753.29 619.1 776.86 557.59 823.71 525.21 869.75 531.91 902.62 586.08 929.94 677.72 938.89 785.05 932.97 874.23 923.04 914.4 904.82 889.03 881.35 803.45 857.87 693.17 830.26 600.4 795.93 556.73 757.59 574.32 705.94 639.98 637.94 725.41 564.38 807.27 479.69 855.03 396.66 858.62 336.93 820.82 310.71 750.98 334.07 667.22 397.6 578.9 488.55 502.51 569.49 444.08 593.83 401.44 543.74 375.69 426.37 360.68 294.53 354.91 210.7 350.76 226.63 342.91 332.26 336.95 468.59 323.2 546.05 299.72 507.53 276.25 384.44 244.17 260.14 205.87 205.67 169.45 254.89 130.9 374.01 96 545.81 63.88 492.74 107.48 373.01 186.39 325.64 239.38 326.12 281.39 365.2 294.75 433.47 266.73 512.34 197.93 586.52 98.87 659.96 -3.76 718.85 -82.79 763.38 -109.44 804.75 -74.86 836.33 13.13 859.8 123.4 883.28 209.01 897.54 239.16 900.44 208.07 900.18 127.95 884 33.97 851.23 -40.47 817.73 -77.44 777.52 -63.09 745.41 -6.28 742.49 79.66 775.69 173.33 853.82 256.74 960.66 323.59 1075.79 365.35 1158.72 385.34 1174.84 386.37 1114.48 377.15 1000.6 366.28 898.68 350.1 862.8 340.68 926.3 341.31 1059.64 341.79 1187.5 353.38 1226.06 376.85Q1226.05 376.86 1226.05 376.86" opacity="0.22"></path><path d="M1192.05 525.46C1126.61 546.58 1002.7 574.22 886.28 606.24 830.26 636.51 855.31 667.53 938.94 694.54 1083.03 718 1062.86 674.69 923.45 604.22 826.11 554.37 752.97 509.45 709.12 483.54 691.62 490.04 694.53 531.39 705.96 605.9 726.81 698.64 742.63 791.2 747.88 858.18 753.64 880.35 746.54 848.68 725.41 769.45 704.29 670.09 670.15 581.69 624.54 529.22 579.46 525 525.21 564.73 467.74 631.49 419.71 710.35 382 775.44 366.95 812.72 378.24 819.71 421.05 793.6 490.71 743.57 561.3 675.94 618.51 603.13 634.2 534.53 591.75 469.13 496.42 415.3 375.03 373.04 275.92 337.16 238.84 309.18 286.71 285.9 394.98 264.75 514.61 244.34 580.05 223.21 550.49 202.09 447.19 181.25 328.98 162.56 250.67 146.01 252.74 135.55 328.08 134.83 445.05 140.48 555.89 159.51 625.19 192.36 639.31 228.4 603.9 270.88 542.66 310.82 469.91 333.16 414.15 334.23 385.53 305.24 380.43 245.97 400.84 161.93 436.25 67.58 483.48 -14.65 531.94 -66.4 574.32 -70.33 618.29 -26.01 652.01 58.09 673.14 157.45 694.27 236.68 701.8 272.62 697.68 258.61 695.13 199.78 685.11 119.25 674.48 41.99 675.67 -17.03 690.03 -39.43 727.69 -23.94 788.86 23.96 874.94 93.93 975.37 171.47 1064.31 250.7 1124.78 318.89 1132.68 371.97 1085.39 412.5 993.5 439.06 892.01 456.32 832.14 465.92 842.07 473.33 928.51 482.9 1054.86 490.71 1162.45 504.33 1192.06 525.45Q1192.05 525.46 1192.05 525.46" opacity="0.29"></path><path d="M1158.05 575.36C1103.86 594.14 998.21 611.01 887.15 624.66 811.02 636.68 795.28 642.52 836.81 639.67 919.31 632.21 1007.12 613.56 1071.54 583.64 1100.7 551.53 1084.99 513.42 1034.71 475.84 959.45 451.02 877.43 440.9 802.41 453.43 734.72 491.95 684.23 554.83 649.15 635.32 624.16 718.73 607.61 791.63 593.91 836.7 583.09 843.52 569.49 807.75 550.71 735.45 531.93 647.14 508.87 564.9 484.28 507.54 462.56 485.89 444.95 500.86 437.4 543.97 439.94 607.37 459.5 672.38 498.26 725.78 544.33 764.05 599.39 777.62 650.04 768.07 675.71 739.26 669.15 695.73 620.44 645.18 536.48 588.17 431.82 533.13 335.56 484.01 280.27 435.63 285.32 394.85 354.2 361.97 458.02 329.98 559.86 304.54 614.05 285.76 592.41 266.99 508.83 255.75 402.7 252.33 312.75 249.8 277.2 256.42 304.3 272.25 382.63 288.84 485.18 312.95 581.04 341.02 667.65 370.92 620.15 350.42 549.57 274.69 504.14 201.74 474.46 119.89 461.31 42.72 456.79 -14.14 464.51 -39.8 479.46 -25.4 497.35 24.71 516.97 103.14 535.75 191.45 554.53 263.75 571.58 303.33 589.09 303.75 609.56 265.93 635.99 203.71 673.04 134.07 718.74 67.34 779.33 21.29 853.7 2.33 929.2 9.35 1004.2 41.73 1063.65 91.16 1092.63 153.36 1083.5 218.43 1032.16 279.48 955.86 338.34 870.15 387.91 805.57 427.92 792.21 463.31 838.43 491.62 935.61 515.01 1048.98 536.78 1136.38 556.57 1158.06 575.35Q1158.05 575.36 1158.05 575.36" opacity="0.11"></path><path d="M1124.05 487.31C992.56 520.17 807.12 522.5 762.03 494.47 876.45 466.25 1011.76 421.5 1054.92 394.91 999.21 425.41 885.02 522.64 781.29 666.7 681.63 784.05 617.55 806.23 584.69 701.45 551.83 549.81 553.3 457.98 596.01 469.93 642.79 566.07 705.69 668.12 718.34 720.95 632.11 723.52 461.94 674.5 323.43 609.73 344.44 532.66 516.56 471.03 648.05 438.17 474.32 404.82 500.17 431.13 704.23 384.37 730.64 288.46 689.9 151.56 648.38 31.34 601.39 -4.7 593.67 73.81 626.53 225.45 659.38 330.23 729.7 321.36 833.63 228.11 932.11 108.13 1024.14 45.75 1040.82 58.32 966.58 127.98 827.98 224.02 753.32 309.19 846.43 394.16 1040.82 454.44 1124.06 487.3Q1124.05 487.31 1124.05 487.31" opacity="0.78"></path><path d="M1090.05 330.58C986.58 358.74 817.99 361.38 724.15 348.03 754.92 344.85 861.08 349.02 953.4 384.64 1004.59 459.17 987.92 572.2 938.6 692.08 869.35 768.28 811.29 763.92 783.12 667.45 754.96 535.95 759.36 438.98 779.79 414.8 780.3 463.28 753.01 543.55 664.9 611.61 467.65 668.63 499.99 606.9 682.05 560.55 622.82 532.38 469.77 515.09 363.97 497.59 371.55 466.4 484.56 411.67 617.51 323.11 729.19 218.13 783.51 107.99 801.62 38.87 796.89 42.4 799.11 127.95 827.28 259.45 855.43 355.91 906.87 371.69 960.43 316.14 991.13 216.91 980.79 133.75 906.04 96.14 810 97.43 726.86 137.22 739.89 189.22 866.32 251.37 1030.78 302.4 1090.06 330.57Q1090.05 330.58 1090.05 330.58" opacity="0.74"></path><path d="M1056.05 228.45C978.59 251.92 838.56 270.1 724.6 290.28 682.85 319.92 717.15 367.32 783.85 439.43 864.49 525.3 914.63 622.93 928.94 704.28 929.04 742.13 911.11 719.03 887.64 633.45 864.17 523.17 837.37 429.71 796.6 381.6 741.62 385.05 654.84 424.96 543.44 474.8 445.97 532.38 386.78 570.24 411.32 583.58 508.07 590.6 638.59 580.1 716.05 556.63 677.53 533.15 560.32 498.93 448.09 451.23 389.5 397.22 416.31 322.73 495.6 234.39 602.91 153.78 697.65 88.98 763.3 68.32 817.86 99.23 853.16 183.17 876.63 293.45 900.11 379.03 909.54 411.64 895.66 391 870.7 326.85 812.59 254.12 736.04 199.01 687.5 157.67 685.57 146.89 761.34 157.93 890.77 178.43 1017.5 204.97 1056.06 228.44Q1056.05 228.45 1056.05 228.45" opacity="0.46"></path><path d="M1022.05 261.26C967.86 280.04 863.1 309.95 756.41 351.26 675.94 396.08 642.47 456.23 647.13 527.13 682.21 594.63 722.15 657.56 748.31 697.78 775.4 705.18 780.95 671.75 762.17 599.45 743.39 511.14 702.07 428.71 642.43 370.54 583.73 341.82 514.48 340.97 454.79 356.52 425.52 387.37 439.08 415.65 505.78 431.5 598.71 448.08 695.86 448.27 750.05 429.49 728.41 410.71 649.31 374.75 555.49 325.62 471.58 277.23 433.16 219.65 439.67 164.18 479.46 124.02 537.33 104.96 591.51 119.91 649.68 164.32 691.54 239.14 710.32 327.45 726.06 420.27 661.47 399.19 632.01 334.79 650.11 288.5 708.43 257.66 806.09 245.38 913.66 236.61 1000.38 242.48 1022.06 261.25Q1022.05 261.26 1022.05 261.26" opacity="0.61"></path><path d="M988.05 403.21C884.58 431.38 717.6 510.47 621.3 602.21 592.82 662.24 598.23 661.92 570.07 565.45 541.9 433.93 485.48 334.15 477.05 295.13 536.43 299.25 680.58 307.32 784.05 279.15 724.81 250.98 585.69 191.92 505.12 150.88 480.59 152.98 516.72 229.93 544.89 361.45 573.06 457.92 587.93 481.07 649.37 457.96 766.86 403.14 928.81 375.04 988.05 403.21Q988.05 403.21 988.05 403.21" opacity="0.30"></path><path d="M954.05 542.63C793.35 580.18 599 641.83 561.45 531.45 523.89 361.09 657.35 261.42 818.05 223.87 708.31 186.31 558.16 225.09 595.72 395.45 633.27 505.83 844.31 505.07 954.05 542.63Q954.05 542.63 954.05 542.63" opacity="0.50"></path></g></svg>